<svg width="24" height="24" viewBox="0 0 24 24" fill="none" xmlns="http://www.w3.org/2000/svg">
<path d="M17.3869 0L17.0563 0.962264L16.7807 1.78302C15.1894 0.930425 13.3777 0.45283 11.4627 0.45283C5.14236 0.45283 0 5.73467 0 12.2264C0 18.7182 5.14236 24 11.4627 24C17.783 24 22.9254 18.7182 22.9254 12.2264C22.9254 10.691 22.6223 9.24057 22.0987 7.89623L23.0907 7.5283L24 7.21698L23.6142 6.31132C22.5706 3.81722 20.6935 1.71934 18.2687 0.45283L17.3869 0ZM10.4707 2.32075C10.5086 2.31722 10.5431 2.32429 10.5809 2.32075V11.3208H1.8186C2.23536 6.57311 5.86223 2.79835 10.4707 2.32075ZM12.3444 2.32075C13.7118 2.44811 15.0034 2.86203 16.147 3.50943L14.163 9.19811L13.5293 11.0094L15.2928 10.3585L20.4455 8.49057C20.9001 9.64387 21.1619 10.9033 21.1619 12.2264C21.1619 14.6533 20.3284 16.8679 18.93 18.5943L12.3444 11.8302V2.32075ZM18.3238 2.71698C19.6567 3.61557 20.7072 4.79009 21.465 6.19811L16.4501 8.00943L18.3238 2.71698ZM1.8186 13.1321H11.0769L17.6625 19.8962C15.9816 21.3325 13.8255 22.1887 11.4627 22.1887C6.39265 22.1887 2.26292 18.2158 1.8186 13.1321Z" fill="white"/>
</svg>
