<svg width="24" height="24" viewBox="0 0 24 24" fill="none" xmlns="http://www.w3.org/2000/svg">
<path d="M11.7812 0C5.28174 0 0 5.28174 0 11.7812C0 18.2808 5.28174 23.5625 11.7812 23.5625C18.2808 23.5625 23.5625 18.2808 23.5625 11.7812C23.5625 5.28174 18.2808 0 11.7812 0ZM11.7812 0.90625C17.7922 0.90625 22.6562 5.77026 22.6562 11.7812C22.6562 17.7922 17.7922 22.6562 11.7812 22.6562C5.77026 22.6562 0.90625 17.7922 0.90625 11.7812C0.90625 5.77026 5.77026 0.90625 11.7812 0.90625ZM11.7812 2.71875C6.78625 2.71875 2.71875 6.78625 2.71875 11.7812C2.71875 16.7762 6.78625 20.8438 11.7812 20.8438C16.7762 20.8438 20.8438 16.7762 20.8438 11.7812C20.8438 6.78625 16.7762 2.71875 11.7812 2.71875ZM11.7812 4.53125C15.7957 4.53125 19.0312 7.76685 19.0312 11.7812C19.0312 15.7957 15.7957 19.0312 11.7812 19.0312C7.76685 19.0312 4.53125 15.7957 4.53125 11.7812C4.53125 7.76685 7.76685 4.53125 11.7812 4.53125ZM11.7812 6.34375C8.78992 6.34375 6.34375 8.78992 6.34375 11.7812C6.34375 14.7726 8.78992 17.2188 11.7812 17.2188C14.7726 17.2188 17.2188 14.7726 17.2188 11.7812C17.2188 8.78992 14.7726 6.34375 11.7812 6.34375ZM11.7812 8.15625C13.7955 8.15625 15.4062 9.76697 15.4062 11.7812C15.4062 13.7955 13.7955 15.4062 11.7812 15.4062C9.76697 15.4062 8.15625 13.7955 8.15625 11.7812C8.15625 9.76697 9.76697 8.15625 11.7812 8.15625ZM11.7812 9.96875C10.7794 9.96875 9.96875 10.7794 9.96875 11.7812C9.96875 12.7831 10.7794 13.5938 11.7812 13.5938C12.7831 13.5938 13.5938 12.7831 13.5938 11.7812C13.5938 10.7794 12.7831 9.96875 11.7812 9.96875Z" fill="white"/>
</svg>
