<svg width="55" height="55" viewBox="0 0 55 55" fill="none" xmlns="http://www.w3.org/2000/svg">
<path d="M31.2095 12C30.9439 12 30.7307 12.2151 30.7307 12.4788V13.4364C30.7307 13.7001 30.9439 13.9152 31.2095 13.9152C31.4732 13.9152 31.6883 13.7001 31.6883 13.4364V12.4788C31.6883 12.2151 31.4732 12 31.2095 12ZM32.1877 14.2089C32.0586 14.2089 31.937 14.2594 31.8473 14.351L31.1702 15.0281C30.3211 15.8772 29.9657 17.2799 30.0143 18.6135L29.1372 17.7363C28.9501 17.5493 28.649 17.5493 28.462 17.7363L27.7849 18.4133C26.9526 19.2456 26.6029 20.6259 26.6496 21.9426L25.7911 21.0842C25.7014 20.9925 25.5798 20.942 25.4526 20.942C25.3254 20.942 25.2039 20.9925 25.1141 21.0842L24.437 21.7594C23.5842 22.6122 23.2138 24.043 23.2494 25.3878L22.3666 24.5069C22.1796 24.3198 21.8766 24.3198 21.6895 24.5069L21.0125 25.1839C20.1633 26.033 19.808 27.4377 19.8585 28.7693L18.9813 27.8921C18.8017 27.7126 18.4838 27.7126 18.3042 27.8921L17.6272 28.5711C16.8136 29.3847 16.3647 30.4657 16.3647 31.6178C16.3647 32.7681 16.8136 33.8491 17.6272 34.6627L18.6428 35.6802L13.1403 41.1827C12.9532 41.3697 12.9532 41.6727 13.1403 41.8597C13.2338 41.9532 13.3554 42 13.4788 42C13.6022 42 13.7238 41.9532 13.8173 41.8597L19.3217 36.3554L20.3373 37.3709C21.149 38.1864 22.2319 38.6353 23.384 38.6353C24.5343 38.6353 25.6172 38.1864 26.4289 37.3709L27.1079 36.6958C27.1976 36.6041 27.2481 36.4844 27.2481 36.3554C27.2481 36.23 27.1976 36.1066 27.1079 36.0168L26.2232 35.134C26.3074 35.1378 26.3915 35.1471 26.4757 35.1471C27.7325 35.1471 29.0193 34.7843 29.8161 33.9875L30.4931 33.3086C30.6802 33.1216 30.6802 32.8186 30.4931 32.6315L29.6066 31.745C29.6646 31.7469 29.7207 31.7544 29.7805 31.7544C31.0748 31.7544 32.4233 31.3803 33.2406 30.563L33.9177 29.8859C34.0075 29.7961 34.058 29.6746 34.058 29.5474C34.058 29.4202 34.0075 29.2986 33.9177 29.2089L33.0517 28.3429C33.1322 28.3466 33.2107 28.356 33.2893 28.356C34.5349 28.356 35.803 27.9988 36.5885 27.2151L37.2656 26.538C37.4526 26.351 37.4526 26.048 37.2656 25.861L36.3809 24.9763C36.4651 24.98 36.5493 24.9894 36.6334 24.9894C37.8903 24.9894 39.1771 24.6266 39.9738 23.8298L40.6509 23.1527C40.7425 23.063 40.793 22.9414 40.793 22.8123C40.793 22.687 40.7425 22.5636 40.6509 22.4757L39.2968 21.1216C38.9414 20.7662 38.5374 20.4913 38.1072 20.2855C39.1771 19.5729 39.8261 18.4096 39.813 17.1022V15.6658C39.813 15.4021 39.5998 15.187 39.3342 15.187H37.866C36.581 15.187 35.4476 15.8641 34.7537 16.9751C34.5443 16.515 34.2562 16.0829 33.8803 15.7051L32.5262 14.351C32.4345 14.2594 32.3148 14.2089 32.1877 14.2089ZM28.1608 15.0468C27.8953 15.0468 27.682 15.2618 27.682 15.5256V16.4832C27.682 16.7469 27.8953 16.962 28.1608 16.962C28.4264 16.962 28.6397 16.7469 28.6397 16.4832V15.5256C28.6397 15.2618 28.4264 15.0468 28.1608 15.0468ZM32.1877 15.3647L33.2014 16.3822C34.5087 17.6895 34.5087 19.8142 33.2014 21.1216C33.0143 21.3086 33.0143 21.6116 33.2014 21.7986C33.2949 21.8921 33.4183 21.9389 33.5418 21.9389C33.6633 21.9389 33.7868 21.8921 33.8803 21.7986C35.1858 20.4913 37.3123 20.4913 38.6178 21.7986L39.6353 22.8142L39.2968 23.1527C38.2363 24.2132 35.846 24.2581 34.5742 23.5904C34.5574 23.581 34.5368 23.581 34.5199 23.5736C34.0019 23.3585 33.4408 23.2463 32.8628 23.2463C32.4102 23.2463 31.967 23.3173 31.5461 23.452C31.8529 22.4906 31.8173 21.4433 31.4339 20.5044C31.4246 20.4782 31.4246 20.452 31.4115 20.4258C30.7419 19.154 30.7887 16.7637 31.8473 15.7051L32.1877 15.3647ZM37.8978 16.1446H38.8554V17.106C38.8685 18.3516 38.081 19.4308 36.8504 19.8572C36.8242 19.8647 36.8036 19.8853 36.7812 19.8984C36.1602 19.8217 35.5299 19.8797 34.9296 20.0704C35.1016 19.5318 35.1671 18.967 35.1222 18.4059C35.1446 18.3722 35.1708 18.3385 35.182 18.2974C35.5954 16.9769 36.639 16.1278 37.8978 16.1446ZM25.1141 18.0935C24.8504 18.0935 24.6353 18.3086 24.6353 18.5723V19.5299C24.6353 19.7955 24.8504 20.0087 25.1141 20.0087C25.3797 20.0087 25.5929 19.7955 25.5929 19.5299V18.5723C25.5929 18.3086 25.3797 18.0935 25.1141 18.0935ZM28.8005 18.75L29.8161 19.7675C31.1234 21.0729 31.1234 23.1995 29.8161 24.5069C29.6291 24.6939 29.6291 24.9969 29.8161 25.1839C29.9096 25.2774 30.0312 25.3242 30.1546 25.3242C30.2781 25.3242 30.3996 25.2774 30.4931 25.1839C31.1253 24.5517 31.967 24.202 32.8628 24.202C33.7569 24.202 34.6004 24.5517 35.2344 25.1839L36.25 26.1995L35.9096 26.538C34.9445 27.5031 32.8423 27.606 31.5237 27.0898C30.495 26.5474 29.2887 26.4539 28.1964 26.8036C28.5461 25.7113 28.4526 24.505 27.9102 23.4744C27.394 22.1559 27.4969 20.0555 28.4638 19.0885L28.8005 18.75ZM22.0673 21.1421C21.8017 21.1421 21.5885 21.3554 21.5885 21.6209V22.5786C21.5885 22.8423 21.8017 23.0574 22.0673 23.0574C22.3329 23.0574 22.5461 22.8423 22.5461 22.5786V21.6209C22.5461 21.3554 22.3329 21.1421 22.0673 21.1421ZM25.4545 22.0979L26.4682 23.1135C26.702 23.3473 26.8928 23.6091 27.0424 23.884C27.091 24.0056 27.1434 24.1216 27.2014 24.2319C27.2032 24.2357 27.207 24.2375 27.2107 24.2413C27.6914 25.4495 27.4445 26.8803 26.4682 27.8547C26.2812 28.0418 26.2812 28.3448 26.4682 28.5318C26.5617 28.6253 26.6852 28.6721 26.8086 28.6721C26.9302 28.6721 27.0536 28.6253 27.1471 28.5318C28.1216 27.5574 29.5524 27.3105 30.7587 27.7893C30.7625 27.7911 30.7643 27.7949 30.7681 27.7968C30.8279 27.8286 30.8971 27.8529 30.9607 27.8809C31.2955 28.0399 31.6097 28.255 31.8847 28.5318L32.9002 29.5474L32.5636 29.8859C31.5948 30.8547 29.4663 31.0175 28.1421 30.533C27.5193 30.1964 26.8198 30.0168 26.0923 30.0168C25.6378 30.0168 25.1945 30.0879 24.7756 30.2226C25.1253 29.1209 25.0262 27.9071 24.4707 26.8728C23.9807 25.5468 24.1434 23.409 25.1141 22.4364L25.4545 22.0979ZM41.5636 23.3136C41.298 23.3136 41.0848 23.5268 41.0848 23.7924C41.0848 24.0561 41.298 24.2712 41.5636 24.2712H42.5212C42.7868 24.2712 43 24.0561 43 23.7924C43 23.5268 42.7868 23.3136 42.5212 23.3136H41.5636ZM18.6802 24.5256C18.4165 24.5256 18.2014 24.7406 18.2014 25.0044V25.962C18.2014 26.2276 18.4165 26.4408 18.6802 26.4408C18.9458 26.4408 19.159 26.2276 19.159 25.962V25.0044C19.159 24.7406 18.9458 24.5256 18.6802 24.5256ZM22.0299 25.5224L23.0455 26.538C23.2718 26.7643 23.4551 27.0168 23.6029 27.2843C23.6552 27.4152 23.7095 27.5424 23.7731 27.6602C23.7787 27.6714 23.7899 27.6789 23.7955 27.6901C24.2631 28.8909 24.0143 30.3105 23.0455 31.2793C22.8585 31.4663 22.8585 31.7693 23.0455 31.9545C23.139 32.048 23.2606 32.0966 23.384 32.0966C23.5075 32.0966 23.6291 32.048 23.7226 31.9545C24.3547 31.3223 25.1964 30.9744 26.0923 30.9744C26.515 30.9744 26.9264 31.0549 27.3098 31.2045C27.3192 31.2101 27.3267 31.2213 27.3398 31.2288C27.4464 31.2849 27.5698 31.3298 27.6895 31.3784C27.9701 31.5299 28.23 31.7226 28.4638 31.9545L29.4776 32.9719L29.139 33.3086C28.0786 34.3691 25.6901 34.4158 24.4165 33.7463C24.3921 33.7332 24.3641 33.7313 24.3398 33.7238C23.4233 33.3516 22.4059 33.3049 21.467 33.5854C21.4576 33.5761 21.4539 33.5648 21.4464 33.5555C21.437 33.5461 21.4239 33.5424 21.4146 33.5349C21.697 32.5941 21.6502 31.5748 21.2762 30.6602C21.2668 30.634 21.2668 30.6079 21.2537 30.5835C20.586 29.3098 20.6309 26.9214 21.6914 25.861L22.0299 25.5224ZM38.5168 26.3585C38.2512 26.3585 38.038 26.5736 38.038 26.8373C38.038 27.1029 38.2512 27.3161 38.5168 27.3161H39.4744C39.74 27.3161 39.9532 27.1029 39.9532 26.8373C39.9532 26.5736 39.74 26.3585 39.4744 26.3585H38.5168ZM18.6428 28.9077L19.6584 29.9233C20.9657 31.2307 20.9657 33.3554 19.6584 34.6627L19.3217 35.0012L18.3042 33.9875C17.6721 33.3535 17.3242 32.5118 17.3242 31.616C17.3242 30.7201 17.6721 29.8803 18.3042 29.2463L18.6428 28.9077ZM35.4701 29.4071C35.2045 29.4071 34.9913 29.6222 34.9913 29.8859C34.9913 30.1496 35.2045 30.3647 35.4701 30.3647H36.4277C36.6933 30.3647 36.9065 30.1496 36.9065 29.8859C36.9065 29.6222 36.6914 29.4071 36.4277 29.4071H35.4701ZM32.4214 32.4539C32.1577 32.4539 31.9426 32.669 31.9426 32.9327C31.9426 33.1964 32.1577 33.4115 32.4214 33.4115H33.3791C33.6446 33.4115 33.8579 33.1964 33.8579 32.9327C33.8579 32.669 33.6446 32.4539 33.3791 32.4539H32.4214ZM22.707 34.3616C23.5655 34.3616 24.4239 34.687 25.0767 35.3416L26.0923 36.3554L25.7537 36.6958C25.1216 37.3279 24.2781 37.6777 23.384 37.6777C22.4882 37.6777 21.6465 37.3279 21.0125 36.6958L19.9969 35.6802L20.3373 35.3416C20.99 34.687 21.8485 34.3597 22.707 34.3616ZM29.038 35.8392C28.7724 35.8392 28.5592 36.0542 28.5592 36.318C28.5592 36.5817 28.7724 36.7968 29.038 36.7968H29.9956C30.2594 36.7968 30.4744 36.5817 30.4744 36.318C30.4744 36.0542 30.2594 35.8392 29.9956 35.8392H29.038Z" fill="#334152"/>
</svg>
