<svg width="11" height="14" viewBox="0 0 11 14" fill="none" xmlns="http://www.w3.org/2000/svg">
<path d="M2.00977 0V7H0V9H2.00977V10H0L0.0195312 11.5059L2.00977 11.5039V14H4.25V11.502L8 11.5V10H4.25V9H5.94727C7.49327 9 8.71895 8.56617 9.62695 7.70117C10.534 6.83517 11 5.64616 11 4.28516C11 2.92416 10.5663 1.87005 9.69727 1.12305C8.82827 0.375047 7.60534 0 6.02734 0H2.00977ZM4.25 2H5.78125C7.67925 2 8.62795 2.80406 8.62695 4.41406C8.62695 5.23406 8.36952 5.87127 7.85352 6.32227C7.33752 6.77327 6.58566 7 5.59766 7H4.25V2Z" fill="white"/>
</svg>
