<svg width="55" height="55" viewBox="0 0 55 55" fill="none" xmlns="http://www.w3.org/2000/svg">
<path d="M14.7331 12C14.5575 12 14.386 12.0388 14.2403 12.1112C14.0947 12.1837 13.9816 12.2865 13.9155 12.4067C13.8495 12.5269 13.8334 12.6589 13.8694 12.7859C13.9054 12.9128 13.9919 13.0289 14.1177 13.1194L23.2197 19.8435L24.5954 20.8598L27.357 22.8999C27.4383 22.9625 27.5357 23.0125 27.6435 23.0469C27.7513 23.0813 27.8673 23.0995 27.9848 23.1004C28.1022 23.1013 28.2187 23.0848 28.3274 23.052C28.4361 23.0193 28.5349 22.9708 28.6179 22.9094C28.7009 22.8481 28.7666 22.7751 28.811 22.6948C28.8554 22.6145 28.8776 22.5284 28.8764 22.4417C28.8752 22.3549 28.8506 22.2692 28.804 22.1896C28.7574 22.11 28.6898 22.038 28.6051 21.9779L26.664 20.544C27.0969 20.507 27.5348 20.4828 27.981 20.4828C34.3284 20.4828 39.4551 24.2701 39.4551 28.9593C39.4551 33.6484 34.3284 37.4358 27.981 37.4358C21.6336 37.4358 16.507 33.6484 16.507 28.9593C16.507 25.6561 19.0844 22.7952 22.8267 21.3972L21.52 20.4319C21.5079 20.4369 21.4959 20.4421 21.4838 20.4472L19.0152 18.6248C18.3304 18.1185 17.4255 17.8658 16.5208 17.8658C15.6165 17.8658 14.7127 18.119 14.0281 18.6248C12.6573 19.6366 12.6573 21.2973 14.0281 22.309L16.4846 24.1251C15.3893 25.5381 14.7554 27.1695 14.7435 28.9096C14.742 28.9262 14.7415 28.9427 14.7417 28.9593C14.7417 30.7111 15.3766 32.3522 16.4725 33.7757L14.0281 35.5815C12.6573 36.5933 12.6573 38.2553 14.0281 39.2671C14.713 39.773 15.6208 40.0299 16.5225 40.0299C17.4242 40.0299 18.332 39.773 19.0169 39.2671L21.4597 37.4612C22.6502 37.9615 23.9501 38.3356 25.3332 38.5437V41.348C25.3332 41.5209 25.4262 41.6867 25.5917 41.809C25.7572 41.9313 25.9817 42 26.2158 42H29.7463C29.9804 42 30.2048 41.9313 30.3704 41.809C30.5359 41.6867 30.6289 41.5209 30.6289 41.348V38.5437C32.0209 38.3342 33.3281 37.9563 34.5248 37.451L36.9831 39.2671C37.668 39.773 38.5758 40.0312 39.4775 40.0312C40.3792 40.0312 41.287 39.773 41.9719 39.2671C43.3427 38.2553 43.3427 36.5946 41.9719 35.5828L39.5068 33.763C40.5953 32.343 41.2203 30.7047 41.2203 28.9593C41.2203 27.2071 40.5859 25.5654 39.4896 24.1416L41.9512 22.323C43.3214 21.3117 43.3219 19.6507 41.953 18.6388C41.2682 18.1325 40.3632 17.8785 39.4585 17.8785C38.5538 17.8785 37.6489 18.1325 36.9641 18.6388L34.5024 20.4574C32.5752 19.6474 30.3528 19.1788 27.981 19.1788C27.9488 19.1787 27.9166 19.18 27.8845 19.1826C26.942 19.1878 26.0267 19.2729 25.1418 19.4195L15.3658 12.1974C15.2835 12.1349 15.1852 12.0853 15.0765 12.0514C14.9678 12.0175 14.8511 12 14.7331 12V12ZM16.5225 19.1622C16.9718 19.1622 17.4201 19.2902 17.7671 19.5468L19.9806 21.182C19.0415 21.71 18.2019 22.3276 17.4827 23.0184L15.2761 21.387C14.5816 20.8743 14.5816 20.0595 15.2761 19.5468C15.6231 19.2902 16.0732 19.1622 16.5225 19.1622ZM39.4568 19.1749C39.9061 19.1749 40.3562 19.303 40.7032 19.5595V19.5608C41.3977 20.0735 41.3977 20.8883 40.7032 21.401L38.4914 23.0349C37.7745 22.3424 36.9379 21.7244 36.0005 21.1947L38.2122 19.5595C38.5592 19.303 39.0076 19.1749 39.4568 19.1749ZM16.5604 19.8435C16.3263 19.8435 16.1018 19.9122 15.9363 20.0345C15.7708 20.1568 15.6778 20.3226 15.6778 20.4956C15.6778 20.6685 15.7708 20.8343 15.9363 20.9566C16.1018 21.0789 16.3263 21.1476 16.5604 21.1476C16.7945 21.1476 17.019 21.0789 17.1845 20.9566C17.3501 20.8343 17.443 20.6685 17.443 20.4956C17.443 20.3226 17.3501 20.1568 17.1845 20.0345C17.019 19.9122 16.7945 19.8435 16.5604 19.8435ZM39.4189 19.8563C39.1848 19.8563 38.9603 19.925 38.7948 20.0472C38.6293 20.1695 38.5363 20.3354 38.5363 20.5083C38.5363 20.5939 38.5591 20.6787 38.6035 20.7578C38.6478 20.8369 38.7128 20.9088 38.7948 20.9694C38.8767 21.0299 38.974 21.0779 39.0811 21.1107C39.1882 21.1435 39.303 21.1603 39.4189 21.1603C39.5348 21.1603 39.6496 21.1435 39.7567 21.1107C39.8637 21.0779 39.961 21.0299 40.043 20.9694C40.125 20.9088 40.19 20.8369 40.2343 20.7578C40.2787 20.6787 40.3015 20.5939 40.3015 20.5083C40.3015 20.3354 40.2085 20.1695 40.043 20.0472C39.8775 19.925 39.653 19.8563 39.4189 19.8563ZM20.9201 28.3073V29.6113H35.042V28.3073H20.9201ZM20.9201 30.9154V32.2195H29.7463V30.9154H20.9201ZM38.5087 34.8696L40.7239 36.5048C41.4184 37.0175 41.4184 37.8324 40.7239 38.345C40.3761 38.602 39.9297 38.7271 39.4775 38.7271C39.0253 38.7271 38.5789 38.602 38.2311 38.345L36.0246 36.7149C36.9603 36.1841 37.7937 35.563 38.5087 34.8696ZM17.4706 34.8824C18.1877 35.5752 19.0238 36.194 19.9616 36.7239L17.7689 38.345C17.4211 38.602 16.9747 38.7258 16.5225 38.7258C16.0703 38.7258 15.6239 38.602 15.2761 38.345C14.5816 37.8324 14.5816 37.0175 15.2761 36.5048V36.5035L17.4706 34.8824ZM16.507 36.7837C16.2729 36.7837 16.0484 36.8524 15.8829 36.9747C15.7174 37.097 15.6244 37.2628 15.6244 37.4358C15.6244 37.6087 15.7174 37.7745 15.8829 37.8968C16.0484 38.0191 16.2729 38.0878 16.507 38.0878C16.7411 38.0878 16.9656 38.0191 17.1311 37.8968C17.2966 37.7745 17.3896 37.6087 17.3896 37.4358C17.3896 37.2628 17.2966 37.097 17.1311 36.9747C16.9656 36.8524 16.7411 36.7837 16.507 36.7837ZM39.4913 36.7837C39.2572 36.7837 39.0327 36.8524 38.8672 36.9747C38.7017 37.097 38.6087 37.2628 38.6087 37.4358C38.6087 37.6087 38.7017 37.7745 38.8672 37.8968C39.0327 38.0191 39.2572 38.0878 39.4913 38.0878C39.7254 38.0878 39.9499 38.0191 40.1154 37.8968C40.2809 37.7745 40.3739 37.6087 40.3739 37.4358C40.3739 37.2628 40.2809 37.097 40.1154 36.9747C39.9499 36.8524 39.7254 36.7837 39.4913 36.7837ZM27.0984 38.7067C27.3916 38.7211 27.683 38.7398 27.981 38.7398C28.2791 38.7398 28.5705 38.7211 28.8637 38.7067V40.6959H27.0984V38.7067Z" fill="#334152"/>
</svg>
