<svg width="30" height="30" viewBox="0 0 30 30" fill="none" xmlns="http://www.w3.org/2000/svg">
<path d="M6.54119 5.10714H6.3622L6.30453 5.27659C5.72357 6.98336 3.79356 8.32143 1.36364 8.32143H0.25V0.25H1.36364C3.79356 0.25 5.72357 1.58806 6.30453 3.29484L6.3622 3.46429H6.54119H9.54545H9.79545V3.21429V2.14286V1.32143H17.4773V3.21429V3.46429H17.7273H20.8754H21.0662L21.1165 3.28017C21.1543 3.14173 21.1861 3.0017 21.2165 2.868C21.2212 2.84729 21.2258 2.82674 21.2305 2.80637C21.2657 2.65189 21.3005 2.50552 21.344 2.36384C21.4303 2.08318 21.5483 1.83128 21.7577 1.60913C22.4901 0.832321 23.7442 0.25 25.2273 0.25C26.7104 0.25 27.9645 0.832321 28.6968 1.60913C29.4329 2.38988 29.75 3.3413 29.75 4.28571C29.75 5.23013 29.4329 6.18155 28.6968 6.96229C27.9645 7.73911 26.7104 8.32143 25.2273 8.32143C23.7442 8.32143 22.4901 7.73911 21.7577 6.9623C21.5483 6.74015 21.4303 6.48824 21.344 6.20759C21.3005 6.06591 21.2657 5.91954 21.2305 5.76506C21.2258 5.74469 21.2212 5.72413 21.2165 5.70343C21.1861 5.56973 21.1543 5.4297 21.1165 5.29126L21.0662 5.10714H20.8754H17.7273H17.4773V5.35714V7.25H15H14.75V7.5V9.64286V9.89286H15H18.6098L20.2045 14.907V27.8571V28.6786H15H14.75V28.9286V29.75H12.5227V28.9286V28.6786H12.2727H7.06818V14.907L8.66294 9.89286H12.2727H12.5227V9.64286V7.5V7.25H12.2727H9.79545V5.35714V5.10714H9.54545H6.54119ZM2.83706 2.35771L2.47727 2.18183V2.58231V5.98912V6.38959L2.83706 6.21372C3.63009 5.82607 4.34091 5.20942 4.34091 4.28571C4.34091 3.36201 3.63009 2.74536 2.83706 2.35771ZM12.2727 2.96429H12.0227V3.21429V5.35714V5.60714H12.2727H15H15.25V5.35714V3.21429V2.96429H15H12.2727ZM10.6108 11.5357H10.428L10.3726 11.7099L9.69075 13.8528L9.58708 14.1786H9.92898H17.3438H17.6856L17.582 13.8528L16.9002 11.7099L16.8447 11.5357H16.6619H15H12.2727H10.6108ZM9.54545 15.8214H9.29545V16.0714V18.2143V18.4643H9.54545H12.0227V20.1071H9.54545H9.29545V20.3571V22.5V22.75H9.54545H12.0227V24.3929H9.54545H9.29545V24.6429V26.7857V27.0357H9.54545H12.2727H15H17.7273H17.9773V26.7857V24.6429V24.3929H17.7273H15.25V22.75H17.7273H17.9773V22.5V20.3571V20.1071H17.7273H15.25V18.4643H17.7273H17.9773V18.2143V16.0714V15.8214H17.7273H9.54545ZM26.8714 2.54265C26.6782 2.33772 26.4665 2.17062 26.1951 2.05752C25.9254 1.94517 25.6132 1.89286 25.2273 1.89286C24.8414 1.89286 24.5291 1.94517 24.2595 2.05752C23.9881 2.17062 23.7764 2.33772 23.5832 2.54265C23.1826 2.96758 22.9318 3.62347 22.9318 4.28571C22.9318 4.94796 23.1826 5.60385 23.5832 6.02878C23.7764 6.23371 23.9881 6.40081 24.2595 6.51391C24.5291 6.62626 24.8414 6.67857 25.2273 6.67857C25.6132 6.67857 25.9254 6.62626 26.1951 6.51391C26.4665 6.40081 26.6782 6.23371 26.8714 6.02878C27.272 5.60385 27.5227 4.94796 27.5227 4.28571C27.5227 3.62347 27.272 2.96758 26.8714 2.54265Z" fill="#334152" stroke="white" stroke-width="0.5"/>
</svg>
