<svg width="18" height="24" viewBox="0 0 18 24" fill="none" xmlns="http://www.w3.org/2000/svg">
<path d="M9 0C7.51949 0 6.3 1.20444 6.3 2.66667H4.5H2.7C1.21953 2.66667 0 3.87114 0 5.33333V21.3333C0 22.7955 1.21953 24 2.7 24H15.3C16.7805 24 18 22.7955 18 21.3333V5.33333C18 3.87114 16.7805 2.66667 15.3 2.66667H13.5H11.7C11.7 1.20444 10.4805 0 9 0ZM9 1.77778C9.50772 1.77778 9.9 2.16522 9.9 2.66667C9.9 3.16812 9.50772 3.55556 9 3.55556C8.49228 3.55556 8.1 3.16812 8.1 2.66667C8.1 2.16522 8.49228 1.77778 9 1.77778ZM2.7 4.44444H4.5C4.5 5.42667 5.3055 6.22222 6.3 6.22222H11.7C12.6945 6.22222 13.5 5.42667 13.5 4.44444H15.3C15.8085 4.44444 16.2 4.83108 16.2 5.33333V21.3333C16.2 21.8356 15.8085 22.2222 15.3 22.2222H2.7C2.19147 22.2222 1.8 21.8356 1.8 21.3333V5.33333C1.8 4.83108 2.19147 4.44444 2.7 4.44444ZM12.6141 8.88889C12.3265 8.88911 12.0391 8.99839 11.8195 9.21528L11.025 10L13.275 12.2222L14.0695 11.4375C14.5087 11.0037 14.5114 10.3018 14.0713 9.86805L13.4086 9.21354C13.189 8.99665 12.9016 8.88867 12.6141 8.88889ZM9.9 11.1111L4.85332 16.0955L5.56875 16.5L5.85 17.3333L6.69375 17.6111L7.10332 18.3177L12.15 13.3333L9.9 11.1111ZM4.10098 17.8281L3.62109 19.1719C3.60711 19.2055 3.59994 19.2415 3.6 19.2778C3.59994 19.3143 3.60718 19.3504 3.62129 19.3841C3.6354 19.4179 3.65612 19.4485 3.68224 19.4743C3.70837 19.5001 3.7394 19.5206 3.77355 19.5345C3.8077 19.5485 3.8443 19.5556 3.88125 19.5556C3.91555 19.5553 3.94951 19.5488 3.98145 19.5365H3.9832C3.98379 19.5365 3.98437 19.5365 3.98496 19.5365L5.34902 19.0608L4.10098 17.8281Z" fill="white"/>
</svg>
